SplineFontDB: 3.2
FontName: Prospero
FullName: Prospero
FamilyName: Prospero
Weight: Regular
Copyright: Copyright (c) 2026, Dave Jeffery (https://kecskebak.hu|info@kecskebak.hu),\nwith Reserved Font Name Prospero.\n\n\nThis Font Software is licensed under the SIL Open Font License, Version 1.1.\nThis license is copied below, and is also available with a FAQ at:\nhttps://openfontlicense.org\n
UComments: "2026-7-19: Created with FontForge (http://fontforge.org)"
Version: 001.000
ItalicAngle: 0
UnderlinePosition: -100
UnderlineWidth: 50
Ascent: 800
Descent: 200
InvalidEm: 0
LayerCount: 2
Layer: 0 0 "Back" 1
Layer: 1 0 "Fore" 0
XUID: [1021 982 318616617 4222588]
FSType: 0
OS2Version: 0
OS2_WeightWidthSlopeOnly: 0
OS2_UseTypoMetrics: 1
CreationTime: 1784451120
ModificationTime: 1784625426
PfmFamily: 17
TTFWeight: 400
TTFWidth: 5
LineGap: 90
VLineGap: 0
OS2TypoAscent: 0
OS2TypoAOffset: 1
OS2TypoDescent: 0
OS2TypoDOffset: 1
OS2TypoLinegap: 90
OS2WinAscent: 0
OS2WinAOffset: 1
OS2WinDescent: 0
OS2WinDOffset: 1
HheadAscent: 0
HheadAOffset: 1
HheadDescent: 0
HheadDOffset: 1
OS2Vendor: 'PfEd'
MarkAttachClasses: 1
DEI: 91125
LangName: 1033
Encoding: ISO8859-1
UnicodeInterp: none
NameList: AGL For New Fonts
DisplaySize: -48
AntiAlias: 1
FitToEm: 0
WinInfo: 48 16 4
BeginPrivate: 0
EndPrivate
TeXData: 1 0 0 346030 173015 115343 0 1048576 115343 783286 444596 497025 792723 393216 433062 380633 303038 157286 324010 404750 52429 2506097 1059062 262144
BeginChars: 263 40

StartChar: N
Encoding: 78 78 0
Width: 1000
Flags: H
LayerCount: 2
Fore
SplineSet
219 696 m 5
 219 696 798 6 796 8 c 4
 795 10 804 3 808 3 c 4
 813 3 815 5 815 8 c 6
 815 630 l 6
 815 658 795 679 761 688 c 4
 759 689 757 690 757 692 c 4
 757 694 758 696 761 696 c 6
 936 696 l 5
 936 696 940 695 940 692 c 4
 940 689 936 688 936 688 c 5
 900 688 863 660 863 624 c 6
 863 -172 l 5
 805 -172 l 5
 201 547 l 6
 200 548 196 551 192 551 c 4
 188 551 185 547 185 543 c 6
 185 -86 l 6
 185 -121 216 -162 240 -162 c 4
 244 -162 246 -164 246 -167 c 4
 246 -170 243 -172 240 -172 c 6
 64 -172 l 6
 62 -172 60 -169 60 -167 c 4
 60 -164 62 -162 64 -162 c 4
 94 -162 136 -113 136 -75 c 6
 136 604 l 6
 136 644 71 688 71 688 c 6
 69 688 66 690 66 692 c 4
 66 694 68 696 71 696 c 6
 219 696 l 5
EndSplineSet
EndChar

StartChar: M
Encoding: 77 77 1
Width: 1000
Flags: H
LayerCount: 2
Fore
SplineSet
77 696 m 6
 251 696 l 5
 500 24 l 5
 799 696 l 5
 960 696 l 6
 963 696 965 695 965 692 c 4
 965 690 961 688 957 688 c 4
 917 688 884 635 885 601 c 6
 902 -75 l 6
 902 -88 904 -144 961 -162 c 4
 964 -163 970 -164 970 -167 c 4
 970 -170 967 -172 964 -172 c 6
 731 -172 l 6
 726 -172 725 -169 725 -167 c 4
 725 -165 726 -163 728 -162 c 4
 743 -158 788 -147 791 -67 c 5
 775 525 l 5
 465 -195 l 5
 199 517 l 5
 157 -74 l 6
 154 -113 171 -155 198 -162 c 4
 205 -164 210 -164 210 -167 c 4
 210 -171 205 -172 200 -172 c 6
 42 -172 l 6
 39 -172 36 -170 36 -168 c 4
 36 -166 38 -165 40 -164 c 4
 69 -153 100 -140 104 -81 c 6
 147 529 l 6
 150 579 158 688 79 688 c 4
 74 688 72 690 72 692 c 4
 72 694 74 696 77 696 c 6
EndSplineSet
EndChar

StartChar: L
Encoding: 76 76 2
Width: 1000
Flags: H
LayerCount: 2
Fore
SplineSet
232 696 m 6
 481 696 l 6
 483 696 484 694 484 692 c 4
 484 690 483 688 481 688 c 4
 467 688 406 654 406 557 c 6
 406 237 l 6
 406 32 386 -72 414 -100 c 4
 423 -109 464 -121 517 -121 c 4
 535 -121 705 -131 791 -1 c 5
 746 -172 l 5
 213 -172 l 6
 210 -172 208 -170 208 -167 c 4
 208 -165 210 -162 213 -162 c 4
 265 -162 292 -99 292 -60 c 6
 292 614 l 6
 292 649 242 688 232 688 c 4
 230 688 228 689 228 692 c 4
 228 695 230 696 232 696 c 6
EndSplineSet
EndChar

StartChar: K
Encoding: 75 75 3
Width: 1000
Flags: H
LayerCount: 2
Fore
SplineSet
166 680 m 4
 164 680 162 682 162 684 c 4
 162 686 164 688 166 688 c 6
 409 688 l 6
 411 688 414 686 414 684 c 4
 414 682 411 680 409 680 c 4
 354 680 339 602 339 559 c 6
 339 306 l 5
 669 604 l 6
 685 618 691 639 691 654 c 4
 691 675 658 688 656 688 c 4
 654 688 652 690 652 692 c 4
 652 694 654 696 656 696 c 6
 886 696 l 6
 888 696 890 694 890 692 c 4
 890 690 887 688 886 688 c 4
 869 688 811 662 760 616 c 6
 436 324 l 5
 811 -123 l 6
 837 -154 888 -161 890 -162 c 4
 892 -163 894 -165 894 -167 c 4
 894 -169 892 -172 890 -172 c 6
 653 -172 l 6
 651 -172 649 -169 649 -167 c 4
 649 -165 651 -162 653 -162 c 4
 655 -162 666 -154 666 -145 c 4
 666 -136 656 -112 643 -97 c 6
 345 259 l 6
 344 260 344 260 343 260 c 4
 341 260 339 256 339 253 c 6
 339 -104 l 6
 339 -140 375 -162 405 -162 c 4
 409 -162 411 -164 411 -167 c 4
 411 -170 409 -172 405 -172 c 6
 155 -172 l 6
 153 -172 151 -169 151 -167 c 4
 151 -165 153 -162 155 -162 c 4
 185 -162 225 -122 225 -90 c 6
 225 606 l 6
 225 635 203 680 166 680 c 4
EndSplineSet
EndChar

StartChar: J
Encoding: 74 74 4
Width: 1000
Flags: H
LayerCount: 2
Fore
SplineSet
422 696 m 6
 662 696 l 6
 664 696 666 695 666 692 c 4
 666 689 664 688 662 688 c 4
 639 688 596 647 596 594 c 6
 594 111 l 6
 592 -172 366 -208 342 -208 c 4
 337 -208 334 -205 334 -201 c 4
 334 -197 339 -195 342 -193 c 4
 435 -135 482 -62 482 159 c 6
 482 614 l 6
 482 649 432 688 422 688 c 4
 420 688 418 689 418 692 c 4
 418 695 420 696 422 696 c 6
EndSplineSet
EndChar

StartChar: I
Encoding: 73 73 5
Width: 1000
Flags: H
LayerCount: 2
Fore
SplineSet
384 696 m 6
 624 696 l 6
 626 696 628 695 628 692 c 4
 628 689 626 688 624 688 c 4
 601 688 558 647 558 594 c 6
 558 -90 l 6
 558 -138 610 -164 620 -164 c 4
 622 -164 624 -165 624 -168 c 4
 624 -171 622 -172 620 -172 c 6
 376 -172 l 6
 374 -172 372 -171 372 -168 c 4
 372 -165 374 -164 376 -164 c 4
 395 -164 444 -123 444 -70 c 6
 444 614 l 6
 444 649 394 688 384 688 c 4
 382 688 380 689 380 692 c 4
 380 695 382 696 384 696 c 6
EndSplineSet
EndChar

StartChar: H
Encoding: 72 72 6
Width: 1000
Flags: H
LayerCount: 2
Fore
SplineSet
83 696 m 6
 323 696 l 6
 325 696 327 695 327 692 c 4
 327 689 325 688 323 688 c 4
 300 688 257 647 257 594 c 6
 257 254 l 5
 745 254 l 5
 745 614 l 6
 745 649 695 688 685 688 c 4
 683 688 681 689 681 692 c 4
 681 695 683 696 685 696 c 6
 925 696 l 6
 927 696 929 695 929 692 c 4
 929 689 927 688 925 688 c 4
 902 688 859 647 859 594 c 6
 859 -90 l 6
 859 -138 911 -164 921 -164 c 4
 923 -164 925 -165 925 -168 c 4
 925 -171 923 -172 921 -172 c 6
 677 -172 l 6
 675 -172 673 -171 673 -168 c 4
 673 -165 675 -164 677 -164 c 4
 696 -164 745 -123 745 -70 c 6
 745 204 l 5
 257 204 l 5
 257 -90 l 6
 257 -138 309 -164 319 -164 c 4
 321 -164 323 -165 323 -168 c 4
 323 -171 321 -172 319 -172 c 6
 75 -172 l 6
 73 -172 71 -171 71 -168 c 4
 71 -165 73 -164 75 -164 c 4
 94 -164 143 -123 143 -70 c 6
 143 614 l 6
 143 649 93 688 83 688 c 4
 81 688 79 689 79 692 c 4
 79 695 81 696 83 696 c 6
EndSplineSet
EndChar

StartChar: G
Encoding: 71 71 7
Width: 1000
Flags: H
LayerCount: 2
Fore
SplineSet
556 707 m 4
 744 707 814 660 818 658 c 4
 820 657 825 656 830 656 c 4
 835 656 840 654 842 656 c 5
 864 487 l 5
 864 487 778 658 554 658 c 4
 252 658 206 370 206 275 c 4
 206 53 372 -115 562 -115 c 4
 680 -115 760 -67 760 -67 c 5
 760 133 l 6
 760 168 711 207 701 207 c 4
 699 207 697 208 697 211 c 4
 697 214 699 215 701 215 c 6
 940 215 l 6
 942 215 944 214 944 211 c 4
 944 208 942 207 940 207 c 4
 917 207 875 166 875 113 c 6
 875 -57 l 6
 875 -78 719 -184 517 -184 c 4
 139 -184 84 162 84 264 c 4
 84 496 237 707 556 707 c 4
EndSplineSet
EndChar

StartChar: F
Encoding: 70 70 8
Width: 1000
Flags: H
LayerCount: 2
Fore
SplineSet
224 695 m 6
 740 695 l 5
 758 530 l 5
 707 644 644 640 474 640 c 4
 430 640 418 633 418 606 c 6
 418 316 l 5
 610 316 l 6
 671 316 704 334 722 380 c 5
 722 208 l 5
 702 252 664 268 610 268 c 6
 418 268 l 5
 418 -34 l 6
 418 -131 471 -165 492 -165 c 4
 494 -165 496 -166 496 -168 c 4
 496 -170 494 -173 492 -173 c 6
 244 -173 l 6
 242 -173 240 -172 240 -169 c 4
 240 -166 242 -165 244 -165 c 4
 254 -165 303 -125 303 -90 c 6
 303 584 l 6
 303 623 276 685 224 685 c 4
 221 685 219 688 219 690 c 4
 219 693 221 695 224 695 c 6
EndSplineSet
EndChar

StartChar: E
Encoding: 69 69 9
Width: 1000
Flags: H
LayerCount: 2
Fore
SplineSet
196 695 m 6
 712 695 l 5
 730 530 l 5
 679 644 620 640 432 640 c 4
 396 640 390 633 390 606 c 6
 390 316 l 5
 582 316 l 6
 643 316 676 334 694 380 c 5
 694 208 l 5
 674 252 636 268 582 268 c 6
 390 268 l 5
 390 268 380 -79 401 -100 c 4
 410 -109 454 -116 507 -116 c 4
 525 -116 694 -129 780 1 c 5
 736 -172 l 5
 202 -172 l 6
 199 -172 197 -170 197 -167 c 4
 197 -165 199 -162 202 -162 c 4
 253 -156 279 -113 279 -71 c 6
 275 584 l 6
 275 623 248 685 196 685 c 4
 193 685 191 688 191 690 c 4
 191 693 193 695 196 695 c 6
EndSplineSet
EndChar

StartChar: D
Encoding: 68 68 10
Width: 1000
Flags: H
LayerCount: 2
Fore
SplineSet
86 695 m 6
 496 695 l 6
 663 695 939 608 939 267 c 4
 939 -91 670 -172 379 -172 c 6
 92 -172 l 6
 89 -172 87 -170 87 -167 c 4
 87 -165 89 -162 92 -162 c 4
 143 -156 169 -113 169 -71 c 6
 165 584 l 6
 165 623 138 685 86 685 c 4
 83 685 81 688 81 690 c 4
 81 693 83 695 86 695 c 6
350 642 m 4
 314 642 282 633 282 606 c 6
 282 -36 l 6
 282 -87 287 -92 291 -96 c 4
 298 -103 336 -115 379 -115 c 4
 706 -115 814 53 814 267 c 4
 814 582 572 642 350 642 c 4
EndSplineSet
EndChar

StartChar: C
Encoding: 67 67 11
Width: 1000
Flags: H
LayerCount: 2
Fore
SplineSet
578 711 m 4
 766 711 836 660 840 658 c 4
 842 657 847 656 852 656 c 4
 857 656 862 654 864 656 c 5
 890 488 l 5
 890 488 812 658 576 658 c 4
 274 658 228 407 228 275 c 4
 228 53 394 -115 584 -115 c 4
 737 -115 817 -76 884 -48 c 5
 875 -87 l 5
 875 -87 753 -184 551 -184 c 4
 191 -184 106 145 106 264 c 4
 106 496 259 711 578 711 c 4
EndSplineSet
EndChar

StartChar: B
Encoding: 66 66 12
Width: 1000
Flags: H
LayerCount: 2
Fore
SplineSet
178 695 m 2
 554 695 l 2
 703 695 757 610 757 518 c 0
 757 385 642 350 585 326 c 0
 582 325 581 324 581 322 c 0
 581 320 583 319 585 318 c 0
 824 254 827 99 827 53 c 0
 827 -11 792 -172 544 -172 c 2
 184 -172 l 2
 181 -172 179 -170 179 -167 c 0
 179 -165 181 -162 184 -162 c 0
 235 -156 261 -113 261 -71 c 2
 257 584 l 2
 257 623 230 685 178 685 c 0
 175 685 173 688 173 690 c 0
 173 693 175 695 178 695 c 2
481 646 m 0
 411 646 372 635 372 608 c 0
 372 570 370 487 370 345 c 1
 386 344 406 342 409 342 c 0
 632 342 645 480 645 508 c 0
 645 624 541 646 481 646 c 0
484 289 m 2
 370 289 l 1
 370 107 367.665923107 -78.3591969555 384 -96 c 0
 409 -123 470 -118 507 -118 c 0
 662 -118 709 -16 709 83 c 0
 709 217 562 289 484 289 c 2
EndSplineSet
EndChar

StartChar: A
Encoding: 65 65 13
Width: 1000
Flags: H
LayerCount: 2
Fore
SplineSet
482 717 m 5
 820 -81 l 6
 841 -131 898 -162 913 -162 c 4
 915 -162 917 -165 917 -167 c 4
 917 -169 916 -172 913 -172 c 6
 676 -172 l 6
 674 -172 672 -169 672 -167 c 4
 672 -165 674 -162 676 -162 c 4
 685 -162 705 -137 705 -120 c 4
 705 -92 701 -71 692 -49 c 6
 611 142 l 5
 327 142 l 5
 246 -80 l 5
 246 -80 241 -103 241 -117 c 4
 241 -145 280 -162 284 -162 c 4
 287 -162 289 -164 289 -167 c 4
 289 -170 287 -172 284 -172 c 6
 102 -172 l 6
 99 -172 96 -170 96 -167 c 4
 96 -164 99 -162 102 -162 c 4
 130 -162 182 -108 196 -69 c 6
 482 717 l 5
458 502 m 5
 346 193 l 5
 589 193 l 5
 458 502 l 5
EndSplineSet
EndChar

StartChar: O
Encoding: 79 79 14
Width: 1000
Flags: H
LayerCount: 2
Fore
SplineSet
503 696 m 4
 805 687 951 452 948 239 c 4
 945 34 789 -192 507 -190 c 4
 193 -187 47 49 49 264 c 4
 51 473 218 705 503 696 c 4
485 649 m 4
 259 649 177 420 183 254 c 4
 189 86 262 -134 514 -134 c 4
 754 -134 832 90 830 255 c 4
 828 430 716 649 485 649 c 4
EndSplineSet
EndChar

StartChar: P
Encoding: 80 80 15
Width: 1000
Flags: H
LayerCount: 2
Fore
SplineSet
194 695 m 6
 554 695 l 6
 802 695 842 534 841 470 c 4
 836 193 597 166 421 167 c 4
 418 167 396 168 380 167 c 5
 380 25 382 -47 382 -85 c 4
 382 -112 412 -162 448 -162 c 4
 450 -162 452 -164 452 -167 c 4
 452 -170 450 -172 448 -172 c 6
 194 -172 l 6
 191 -172 189 -170 189 -167 c 4
 189 -165 191 -162 194 -162 c 4
 246 -162 267 -99 267 -60 c 6
 271 594 l 6
 271 636 245 679 194 685 c 4
 191 685 189 688 189 690 c 4
 189 693 191 695 194 695 c 6
455 644 m 4
 433 644 380 638 380 613 c 4
 380 591 380 403 380 221 c 5
 494 221 l 6
 572 221 719 283 719 441 c 4
 719 498 697 644 455 644 c 4
EndSplineSet
EndChar

StartChar: Q
Encoding: 81 81 16
Width: 1000
Flags: H
LayerCount: 2
Fore
SplineSet
505 696 m 4
 807 687 957 452 954 239 c 4
 952 53 820 -148 586 -183 c 5
 649 -202 686 -220 734 -220 c 4
 755 -220 794 -212 794 -212 c 5
 793 -240 l 5
 793 -240 722 -261 684 -261 c 4
 505 -259 441 -146 195 -146 c 4
 172 -146 132 -154 132 -154 c 5
 132 -125 l 5
 139 -125 170 -116 243 -113 c 5
 111 -26 48 123 49 264 c 4
 51 473 203 705 505 696 c 4
487 649 m 4
 261 649 177 420 177 254 c 4
 177 82 264 -138 516 -138 c 4
 756 -138 834 90 832 255 c 4
 830 430 718 649 487 649 c 4
EndSplineSet
EndChar

StartChar: R
Encoding: 82 82 17
Width: 1000
Flags: H
LayerCount: 2
Fore
SplineSet
130 695 m 6
 490 695 l 6
 682 695 739 551 739 487 c 4
 739 359 634 284 510 251 c 4
 510 251 505 247 505 242 c 4
 505 237 511 233 511 233 c 4
 532 222 558 201 588 164 c 4
 702 23 791 -162 874 -162 c 4
 877 -162 880 -164 880 -167 c 4
 880 -170 877 -172 874 -172 c 6
 706 -172 l 5
 442 170 l 5
 442 170 390 231 353 231 c 4
 353 231 l 4
 350 231 348 231 347 231 c 4
 340 231 328 232 316 231 c 5
 316 89 318 -47 318 -85 c 4
 318 -112 348 -162 384 -162 c 4
 386 -162 388 -164 388 -167 c 4
 388 -170 386 -172 384 -172 c 6
 130 -172 l 6
 127 -172 125 -170 125 -167 c 4
 125 -165 127 -162 130 -162 c 4
 182 -162 203 -99 203 -60 c 6
 207 594 l 6
 207 636 181 679 130 685 c 4
 127 685 125 688 125 690 c 4
 125 693 127 695 130 695 c 6
391 644 m 4
 369 644 316 638 316 613 c 4
 316 591 316 465 316 283 c 5
 374 283 l 6
 522 283 612 356 612 479 c 4
 612 536 588 644 391 644 c 4
EndSplineSet
EndChar

StartChar: S
Encoding: 83 83 18
Width: 1000
Flags: H
LayerCount: 2
Fore
SplineSet
714 673 m 5
 712 521 l 5
 712 521 666 668 504 668 c 4
 359 668 356 546 356 536 c 4
 356 473 380 428 521 346 c 4
 682 253 752 195 752 55 c 4
 752 -85 629 -180 456 -180 c 4
 298 -180 226 -114 226 -114 c 5
 219 39 l 5
 219 39 300 -130 458 -130 c 4
 616 -130 640 1 640 31 c 4
 640 62 653 136 421 262 c 4
 304 325 240 427 240 512 c 4
 240 628 348 719 498 719 c 4
 628 719 714 673 714 673 c 5
EndSplineSet
EndChar

StartChar: T
Encoding: 84 84 19
Width: 1000
Flags: H
LayerCount: 2
Fore
SplineSet
176 696 m 5
 851 696 l 5
 836 549 l 5
 817 615 801 649 694 649 c 6
 556 649 l 5
 556 -90 l 6
 556 -138 614 -164 624 -164 c 4
 626 -164 628 -165 628 -168 c 4
 628 -171 626 -172 624 -172 c 6
 380 -172 l 6
 378 -172 376 -171 376 -168 c 4
 376 -165 378 -164 380 -164 c 4
 399 -164 448 -123 448 -70 c 6
 448 649 l 5
 317 649 l 6
 277 649 190 630 145 553 c 5
 176 696 l 5
EndSplineSet
EndChar

StartChar: U
Encoding: 85 85 20
Width: 1000
Flags: H
LayerCount: 2
Fore
SplineSet
80 696 m 6
 320 696 l 6
 322 696 324 695 324 692 c 4
 324 689 322 688 320 688 c 4
 297 688 254 647 254 594 c 6
 254 142 l 6
 254 -60 362 -118 504 -118 c 4
 671 -118 727 -17 738 14 c 5
 738 614 l 6
 738 649 688 688 678 688 c 4
 676 688 674 689 674 692 c 4
 674 695 676 696 678 696 c 6
 918 696 l 6
 920 696 922 695 922 692 c 4
 922 689 920 688 918 688 c 4
 895 688 852 647 852 594 c 6
 852 -90 l 6
 852 -138 904 -164 914 -164 c 4
 916 -164 918 -165 918 -168 c 4
 918 -171 916 -172 914 -172 c 6
 737 -172 l 5
 737 -85 l 5
 722 -99 621 -187 447 -187 c 4
 191 -187 140 -31 140 94 c 6
 140 614 l 6
 140 649 90 688 80 688 c 4
 78 688 76 689 76 692 c 4
 76 695 78 696 80 696 c 6
EndSplineSet
EndChar

StartChar: V
Encoding: 86 86 21
Width: 1000
Flags: H
LayerCount: 2
Fore
SplineSet
84 696 m 6
 334 696 l 6
 336 696 338 695 338 692 c 4
 338 689 336 688 334 688 c 4
 323 688 298 666 298 647 c 4
 298 627 302 611 307 598 c 6
 539 25 l 5
 765 614 l 6
 774 639 756 688 728 688 c 4
 726 688 724 689 724 692 c 4
 724 695 726 696 728 696 c 6
 914 696 l 6
 916 696 918 695 918 692 c 4
 918 689 916 688 914 688 c 4
 891 688 852 658 830 604 c 6
 567 -46 l 5
 508 -192 l 5
 182 614 l 6
 164 658 94 688 84 688 c 4
 82 688 80 689 80 692 c 4
 80 695 82 696 84 696 c 6
EndSplineSet
EndChar

StartChar: W
Encoding: 87 87 22
Width: 1000
Flags: H
LayerCount: 2
Fore
SplineSet
-106 696 m 6
 144 696 l 6
 146 696 148 695 148 692 c 4
 148 689 146 688 144 688 c 4
 133 688 108 666 108 647 c 4
 108 627 113 612 117 598 c 4
 169 416 228 235 282 53 c 5
 451 529 l 6
 456 542 456 572 437 614 c 4
 417 657 399 688 353 688 c 4
 351 688 349 689 349 692 c 4
 349 695 351 696 353 696 c 6
 598 696 l 6
 600 696 602 695 602 692 c 4
 602 689 600 688 598 688 c 4
 587 688 551 672 551 643 c 4
 551 628 556 605 558 598 c 6
 724 53 l 5
 923 613 l 6
 932 638 922 688 894 688 c 4
 892 688 890 689 890 692 c 4
 890 695 892 696 894 696 c 6
 1084 696 l 6
 1086 696 1088 695 1088 692 c 4
 1088 689 1086 688 1084 688 c 4
 1061 688 991 640 971 585 c 6
 688 -216 l 5
 480 463 l 5
 243 -204 l 5
 6 571 l 6
 -30 687 -103 688 -106 688 c 4
 -108 688 -110 689 -110 692 c 4
 -110 695 -108 696 -106 696 c 6
EndSplineSet
EndChar

StartChar: X
Encoding: 88 88 23
Width: 1000
Flags: H
LayerCount: 2
Fore
SplineSet
116 696 m 6
 366 696 l 6
 368 696 370 695 370 692 c 4
 370 689 368 688 366 688 c 4
 355 688 331 678 331 658 c 4
 331 646 351 612 359 600 c 6
 535 328 l 5
 733 621 l 6
 748 643 756 688 728 688 c 4
 726 688 724 689 724 692 c 4
 724 695 726 696 728 696 c 6
 914 696 l 6
 916 696 918 695 918 692 c 4
 918 689 916 688 914 688 c 4
 891 688 822 663 789 615 c 6
 565 283 l 5
 804 -85 l 6
 830 -125 895 -164 905 -164 c 4
 907 -164 909 -165 909 -168 c 4
 909 -171 907 -172 905 -172 c 6
 664 -172 l 6
 662 -172 660 -171 660 -168 c 4
 660 -165 662 -164 664 -164 c 4
 675 -164 695 -161 695 -142 c 4
 695 -128 668 -86 660 -74 c 6
 476 210 l 5
 256 -115 l 6
 241 -137 252 -164 280 -164 c 4
 282 -164 284 -165 284 -168 c 4
 284 -171 282 -172 280 -172 c 6
 94 -172 l 6
 92 -172 90 -171 90 -168 c 4
 90 -165 92 -164 94 -164 c 4
 117 -164 179 -133 212 -85 c 6
 444 259 l 5
 214 614 l 6
 186 658 126 688 116 688 c 4
 114 688 112 689 112 692 c 4
 112 695 114 696 116 696 c 6
EndSplineSet
EndChar

StartChar: Y
Encoding: 89 89 24
Width: 1000
Flags: H
LayerCount: 2
Fore
SplineSet
104 694 m 6
 346 694 l 6
 348 694 350 693 350 690 c 4
 350 687 348 686 346 686 c 4
 335 686 320 681 320 658 c 4
 320 640 340 607 348 595 c 6
 540 288 l 5
 747 619 l 6
 754 630 761 647 761 661 c 4
 761 674 757 686 743 686 c 4
 741 686 739 687 739 690 c 4
 739 693 741 694 743 694 c 6
 910 694 l 6
 912 694 914 693 914 690 c 4
 914 687 912 686 910 686 c 4
 887 686 835 663 804 613 c 6
 558 221 l 5
 558 -90 l 6
 558 -138 610 -164 620 -164 c 4
 622 -164 624 -165 624 -168 c 4
 624 -171 622 -172 620 -172 c 6
 376 -172 l 6
 374 -172 372 -171 372 -168 c 4
 372 -165 374 -164 376 -164 c 4
 395 -164 444 -123 444 -70 c 6
 444 237 l 5
 435 250 l 5
 210 611 l 6
 182 655 114 686 104 686 c 4
 102 686 100 687 100 690 c 4
 100 693 102 694 104 694 c 6
EndSplineSet
EndChar

StartChar: Z
Encoding: 90 90 25
Width: 1000
Flags: H
LayerCount: 2
Fore
SplineSet
879 696 m 5
 233 -116 l 5
 589 -116 l 6
 719 -116 775 -91 890 17 c 5
 811 -180 l 5
 811 -180 815 -172 703 -172 c 6
 35 -172 l 6
 33 -172 31 -173 31 -169 c 4
 31 -167 35 -162 35 -162 c 5
 676 644 l 5
 316 644 l 6
 155 644 67 538 67 538 c 5
 142 700 l 5
 265 696 879 696 879 696 c 5
EndSplineSet
EndChar

StartChar: one
Encoding: 49 49 26
Width: 1000
Flags: H
LayerCount: 2
Fore
SplineSet
353 648 m 6
 562 696 l 5
 568 529 562 193 562 -90 c 4
 562 -138 614 -164 624 -164 c 4
 626 -164 628 -165 628 -168 c 4
 628 -171 626 -172 624 -172 c 6
 376 -172 l 6
 374 -172 372 -171 372 -168 c 4
 372 -165 374 -164 376 -164 c 4
 395 -164 444 -123 444 -70 c 6
 442 534 l 6
 442 584 435 629 352 629 c 4
 350 629 346 636 346 639 c 4
 346 642 351 647 353 648 c 6
EndSplineSet
EndChar

StartChar: two
Encoding: 50 50 27
Width: 1000
Flags: H
LayerCount: 2
Fore
SplineSet
223.506835938 -104.557617188 m 1
 538.754882812 221.891601562 l 1
 538.754882812 221.891601562 645.114257812 332.029296875 645.114257812 457.78515625 c 0
 645.114257812 512.814453125 615.75 628.5 460.25 628.5 c 0
 304.75 628.5 231.75 529 231.75 529 c 1
 233.75 595.5 l 1
 233.75 595.5 319.971679688 700 484.75 700 c 0
 701.5 700 761.359254993 561.707565248 764.5 445.5 c 0
 768 316 686.042533945 240.042533945 639 193 c 0
 527 81 320.170898438 -116.5 320.170898438 -116.5 c 1
 588.341796875 -116.5 l 2
 685.921875 -116.5 770.75 -27.75 770.75 -27.75 c 1
 725.482421875 -176.2421875 l 1
 666.084960938 -172 223.506835938 -172 223.506835938 -172 c 1
 223.506835938 -104.557617188 l 1
EndSplineSet
EndChar

StartChar: three
Encoding: 51 51 28
Width: 1000
Flags: H
LayerCount: 2
Fore
SplineSet
303 688 m 5
 451 684 582 685 726 688 c 5
 518 355 l 5
 548 355 765 320 765 94 c 4
 765 -132 568 -188 480 -188 c 4
 321 -188 238 -74 238 -74 c 5
 254 -28 l 5
 254 -28 352 -135 452 -135 c 4
 528 -135 645 -87 645 71 c 4
 645 229 555 315 483 315 c 6
 401 315 l 5
 595 626 l 5
 459 627 l 6
 379 627 274 588 259 539 c 4
 244 490 303 688 303 688 c 5
EndSplineSet
EndChar

StartChar: four
Encoding: 52 52 29
Width: 1000
Flags: H
LayerCount: 2
Fore
SplineSet
680.236328125 696 m 5
 684.913085938 567.977539062 682.420898438 340.63671875 681.001953125 114.10546875 c 5
 790.609375 114.10546875 l 5
 789.794921875 53 l 5
 680.650390625 53 l 5
 680.40234375 4.6357421875 680.236328125 -43.2763671875 680.236328125 -89.75 c 4
 680.236328125 -137.256835938 731.374023438 -164 741.626953125 -164 c 4
 743.129882812 -164 745.626953125 -165.426757812 745.626953125 -168 c 4
 745.626953125 -170.635742188 743.701171875 -172 741.626953125 -172 c 6
 494.1484375 -172 l 6
 492.07421875 -172 490.1484375 -170.635742188 490.1484375 -168 c 4
 490.1484375 -165.426757812 492.64453125 -164 494.1484375 -164 c 4
 512.885742188 -164 561.71875 -122.262695312 561.53515625 -69.75 c 6
 561.10546875 53 l 5
 215.994140625 53 l 5
 213.912109375 114.10546875 l 5
 576.345703125 672.203125 l 5
 576.345703125 672.203125 680.36328125 696 680.236328125 696 c 5
559.53515625 501.51171875 m 5
 307.951171875 114.10546875 l 5
 560.890625 114.10546875 l 5
 559.53515625 501.51171875 l 5
EndSplineSet
EndChar

StartChar: five
Encoding: 53 53 30
Width: 1000
Flags: H
LayerCount: 2
Fore
SplineSet
729 536 m 5
 677 626 536 628 536 628 c 5
 410 628 l 5
 367 354 l 5
 367 354 414 369 456 369 c 4
 608 369 769 286 769 103 c 4
 769 -80 616 -185 456 -185 c 4
 343 -185 233 -73 233 -73 c 5
 249 -26 l 5
 249 -26 346 -131 456 -131 c 4
 566 -131 647 -60 647 80 c 4
 647 220 580 316 456 316 c 4
 358 316 263 259 263 259 c 5
 331 688 l 5
 679 688 l 5
 729 536 l 5
EndSplineSet
EndChar

StartChar: six
Encoding: 54 54 31
Width: 1000
Flags: H
LayerCount: 2
Fore
SplineSet
572 702 m 4
 649 702 720 685 720 685 c 5
 722 629 l 5
 722 629 698 652 604 652 c 4
 461 652 326 508 326 301 c 5
 326 301 396 364 528 364 c 4
 730 364 798 201 798 95 c 4
 798 22 740 -182 516 -182 c 4
 292 -182 198 4 198 203 c 4
 198 523 388 702 572 702 c 4
510 314 m 4
 377 314 321 208 321 115 c 4
 321 22 359 -133 510 -133 c 4
 661 -133 680 -11 681 85 c 4
 682 181 643 314 510 314 c 4
EndSplineSet
EndChar

StartChar: seven
Encoding: 55 55 32
Width: 1000
Flags: H
LayerCount: 2
Fore
SplineSet
359 -171 m 5
 355 -117 676 628 676 628 c 5
 382 628 l 6
 279 628 216 541 216 541 c 5
 259 688 l 5
 794 688 l 5
 794 688 504 39 504 -172 c 5
 359 -171 l 5
EndSplineSet
EndChar

StartChar: eight
Encoding: 56 56 33
Width: 1000
Flags: H
LayerCount: 2
Fore
SplineSet
493 709 m 4
 690 709 726 570 726 529 c 4
 726 398 587 320 582 318 c 4
 580 317 578 314 578 311 c 4
 578 308 584 306 585 305 c 6
 585 305 756 215 756 71 c 4
 756 -41 674 -172 486 -172 c 4
 310 -172 242 -65 242 46 c 4
 242 151 284 208 410 285 c 5
 376 317 266 392 266 505 c 4
 266 618 365 709 493 709 c 4
494 655 m 4
 423 655 364 613 364 547 c 4
 364 449 529 340 535 339 c 5
 535 339 644 423 644 538 c 4
 644 635 557 655 494 655 c 4
452 257 m 5
 405 209 331 164 331 41 c 4
 331 -62 416 -120 492 -122 c 4
 527 -123 650 -105 650 23 c 4
 650 144 520 203 452 257 c 5
EndSplineSet
EndChar

StartChar: nine
Encoding: 57 57 34
Width: 1000
Flags: H
LayerCount: 2
Fore
SplineSet
426 -177 m 4
 349 -177 278 -160 278 -160 c 5
 276 -104 l 5
 276 -104 300 -127 394 -127 c 4
 537 -127 672 16 672 223 c 5
 672 223 602 160 470 160 c 4
 268 160 200 323 200 429 c 4
 200 502 258 706 482 706 c 4
 706 706 800 521 800 322 c 4
 800 2 610 -177 426 -177 c 4
489 211 m 4
 622 211 677 317 677 410 c 4
 677 503 640 658 489 658 c 4
 338 658 319 535 318 439 c 4
 317 343 356 211 489 211 c 4
EndSplineSet
EndChar

StartChar: zero
Encoding: 48 48 35
Width: 1000
Flags: H
LayerCount: 2
Fore
SplineSet
507 706 m 4
 712 706 815 446 815 256 c 4
 815 66 715 -172 507 -172 c 4
 299 -172 185 49 185 256 c 4
 185 463 302 706 507 706 c 4
504 656 m 4
 359 656 301 441 301 257 c 4
 301 73 340 -122 504 -122 c 4
 668 -122 698 88 698 257 c 4
 698 426 649 656 504 656 c 4
EndSplineSet
EndChar

StartChar: comma
Encoding: 44 44 36
Width: 1000
Flags: H
LayerCount: 2
Fore
SplineSet
500 -38 m 4
 545 -38 565 -73 565 -107 c 4
 565 -172 521 -250 437 -250 c 5
 437 -222 l 5
 457 -222 485 -184 485 -168 c 4
 485 -160 480 -159 474 -156 c 4
 452 -146 438 -124 438 -100 c 4
 438 -66 466 -38 500 -38 c 4
EndSplineSet
EndChar

StartChar: period
Encoding: 46 46 37
Width: 1000
Flags: H
LayerCount: 2
Fore
SplineSet
562 -100 m 4
 562 -134 534 -162 500 -162 c 4
 466 -162 438 -134 438 -100 c 4
 438 -66 466 -38 500 -38 c 4
 534 -38 562 -66 562 -100 c 4
EndSplineSet
EndChar

StartChar: colon
Encoding: 58 58 38
Width: 1000
Flags: H
LayerCount: 2
Fore
SplineSet
500 332 m 4
 534 332 562 304 562 270 c 4
 562 236 534 208 500 208 c 4
 466 208 438 236 438 270 c 4
 438 304 466 332 500 332 c 4
500 -38 m 4
 534 -38 562 -66 562 -100 c 4
 562 -134 534 -162 500 -162 c 4
 466 -162 438 -134 438 -100 c 4
 438 -66 466 -38 500 -38 c 4
EndSplineSet
EndChar

StartChar: semicolon
Encoding: 59 59 39
Width: 1000
Flags: H
LayerCount: 2
Fore
SplineSet
500 332 m 4
 534 332 562 304 562 270 c 4
 562 236 534 208 500 208 c 4
 466 208 438 236 438 270 c 4
 438 304 466 332 500 332 c 4
504 -32 m 4
 549 -32 569 -67 569 -101 c 4
 569 -166 525 -244 441 -244 c 5
 441 -217 l 5
 461 -217 489 -178 489 -162 c 4
 489 -154 484 -153 478 -150 c 4
 456 -140 442 -118 442 -94 c 4
 442 -60 470 -32 504 -32 c 4
EndSplineSet
EndChar
